<svg id="svg" version="1.1" xmlns="http://www.w3.org/2000/svg" xmlns:xlink="http://www.w3.org/1999/xlink" width="400" height="140.25974025974028" viewBox="0, 0, 400,140.25974025974028"><g id="svgg"><path id="path0" d="M285.281 16.765 C 273.850 22.028,276.649 38.967,288.948 38.958 C 294.233 38.954,298.381 36.475,300.137 32.273 C 304.112 22.760,294.364 12.584,285.281 16.765 M162.085 54.762 C 162.333 89.881,162.371 90.560,164.358 95.483 C 178.806 131.276,230.145 122.275,232.669 83.505 C 234.575 54.227,203.146 33.694,181.169 49.860 L 179.221 51.293 179.221 35.171 L 179.221 19.048 170.527 19.048 L 161.833 19.048 162.085 54.762 M316.017 32.900 L 316.017 46.753 311.688 46.753 L 307.359 46.753 307.359 55.411 L 307.359 64.069 311.587 64.069 L 315.814 64.069 316.168 78.139 C 316.856 105.465,327.551 116.883,352.458 116.883 L 361.039 116.883 361.039 108.225 L 361.039 99.567 354.329 99.546 C 336.942 99.493,333.069 94.949,333.523 75.132 L 333.766 64.502 347.403 64.264 L 361.039 64.025 361.039 55.389 L 361.039 46.753 347.186 46.753 L 333.333 46.753 333.333 32.900 L 333.333 19.048 324.675 19.048 L 316.017 19.048 316.017 32.900 M52.628 54.762 L 52.381 86.147 49.784 89.791 C 44.957 96.562,34.782 99.825,27.329 96.991 L 25.108 96.147 25.108 106.020 L 25.108 115.893 30.041 116.509 C 44.781 118.351,60.988 109.383,67.472 95.798 C 71.228 87.928,71.825 81.792,71.844 50.866 L 71.861 23.377 62.368 23.377 L 52.876 23.377 52.628 54.762 M108.760 45.119 C 91.164 49.250,78.976 68.393,82.067 87.046 C 89.474 131.741,151.948 126.253,151.948 80.907 C 151.948 55.864,132.309 39.590,108.760 45.119 M280.519 81.818 L 280.519 116.883 289.177 116.883 L 297.835 116.883 297.835 81.818 L 297.835 46.753 289.177 46.753 L 280.519 46.753 280.519 81.818 M125.938 64.307 C 141.828 73.308,135.522 100.309,117.505 100.414 C 101.646 100.506,93.352 79.179,104.591 67.211 C 109.516 61.967,119.426 60.619,125.938 64.307 M204.876 63.749 C 215.037 68.570,218.461 82.600,211.855 92.340 C 202.518 106.107,181.872 100.713,179.568 83.904 C 177.602 69.562,192.360 57.809,204.876 63.749 " stroke="none" fill="#000000" fill-rule="evenodd"></path></g></svg>